<svg id="visual" viewBox="0 0 900 600" width="900" height="600" xmlns="http://www.w3.org/2000/svg" xmlns:xlink="http://www.w3.org/1999/xlink" version="1.1"><rect x="0" y="0" width="900" height="600" fill="#E6E6FA"></rect><defs><linearGradient id="grad1_0" x1="33.3%" y1="0%" x2="100%" y2="100%"><stop offset="20%" stop-color="#c3aed6" stop-opacity="1"></stop><stop offset="80%" stop-color="#c3aed6" stop-opacity="1"></stop></linearGradient></defs><defs><linearGradient id="grad1_1" x1="33.3%" y1="0%" x2="100%" y2="100%"><stop offset="20%" stop-color="#c3aed6" stop-opacity="1"></stop><stop offset="80%" stop-color="#d2cae9" stop-opacity="1"></stop></linearGradient></defs><defs><linearGradient id="grad1_2" x1="33.3%" y1="0%" x2="100%" y2="100%"><stop offset="20%" stop-color="#e6e6fa" stop-opacity="1"></stop><stop offset="80%" stop-color="#d2cae9" stop-opacity="1"></stop></linearGradient></defs><defs><linearGradient id="grad2_0" x1="0%" y1="0%" x2="66.7%" y2="100%"><stop offset="20%" stop-color="#c3aed6" stop-opacity="1"></stop><stop offset="80%" stop-color="#c3aed6" stop-opacity="1"></stop></linearGradient></defs><defs><linearGradient id="grad2_1" x1="0%" y1="0%" x2="66.7%" y2="100%"><stop offset="20%" stop-color="#d2cae9" stop-opacity="1"></stop><stop offset="80%" stop-color="#c3aed6" stop-opacity="1"></stop></linearGradient></defs><defs><linearGradient id="grad2_2" x1="0%" y1="0%" x2="66.7%" y2="100%"><stop offset="20%" stop-color="#d2cae9" stop-opacity="1"></stop><stop offset="80%" stop-color="#e6e6fa" stop-opacity="1"></stop></linearGradient></defs><g transform="translate(900, 0)"><path d="M0 486.7C-44.6 463.6 -89.2 440.5 -139.7 429.9C-190.1 419.2 -246.4 421 -286.1 393.8C-325.8 366.6 -348.8 310.3 -358.4 260.4C-368 210.5 -364.1 166.9 -383.3 124.5C-402.4 82.2 -444.6 41.1 -486.7 0L0 0Z" fill="#dbd8f2"></path><path d="M0 324.5C-29.7 309.1 -59.5 293.7 -93.1 286.6C-126.8 279.5 -164.3 280.7 -190.7 262.5C-217.2 244.4 -232.5 206.9 -238.9 173.6C-245.3 140.3 -242.7 111.3 -255.5 83C-268.3 54.8 -296.4 27.4 -324.5 0L0 0Z" fill="#cabce0"></path><path d="M0 162.2C-14.9 154.5 -29.7 146.8 -46.6 143.3C-63.4 139.7 -82.1 140.3 -95.4 131.3C-108.6 122.2 -116.3 103.4 -119.5 86.8C-122.7 70.2 -121.4 55.6 -127.8 41.5C-134.1 27.4 -148.2 13.7 -162.2 0L0 0Z" fill="#c3aed6"></path></g><g transform="translate(0, 600)"><path d="M0 -486.7C52.2 -483.9 104.4 -481 150.4 -462.9C196.4 -444.9 236.1 -411.6 275.7 -379.4C315.3 -347.2 354.7 -316 380.2 -276.3C405.7 -236.5 417.3 -188.1 432.7 -140.6C448.2 -93.1 467.5 -46.6 486.7 0L0 0Z" fill="#dbd8f2"></path><path d="M0 -324.5C34.8 -322.6 69.6 -320.7 100.3 -308.6C130.9 -296.6 157.4 -274.4 183.8 -253C210.2 -231.5 236.5 -210.7 253.5 -184.2C270.5 -157.6 278.2 -125.4 288.5 -93.7C298.8 -62.1 311.6 -31 324.5 0L0 0Z" fill="#cabce0"></path><path d="M0 -162.2C17.4 -161.3 34.8 -160.3 50.1 -154.3C65.5 -148.3 78.7 -137.2 91.9 -126.5C105.1 -115.7 118.2 -105.3 126.7 -92.1C135.2 -78.8 139.1 -62.7 144.2 -46.9C149.4 -31 155.8 -15.5 162.2 0L0 0Z" fill="#c3aed6"></path></g></svg>