<svg xmlns="http://www.w3.org/2000/svg" xmlns:xlink="http://www.w3.org/1999/xlink" width="70" zoomAndPan="magnify" viewBox="0 0 52.5 37.5" height="50" preserveAspectRatio="xMidYMid meet" version="1.0"><defs><g/></defs><g fill="#fffaf0" fill-opacity="1"><g transform="translate(1.918418, 32.161291)"><g><path d="M 9.609375 -19.140625 C 9.742188 -19.265625 9.851562 -19.3125 9.9375 -19.28125 C 10.019531 -19.25 10.070312 -19.148438 10.09375 -18.984375 C 10.195312 -17.890625 10.132812 -16.960938 9.90625 -16.203125 C 9.6875 -15.453125 9.382812 -14.835938 9 -14.359375 C 8.613281 -13.890625 8.207031 -13.535156 7.78125 -13.296875 C 7.363281 -13.066406 7 -12.929688 6.6875 -12.890625 C 5.363281 -12.703125 4.316406 -12.921875 3.546875 -13.546875 C 2.773438 -14.179688 2.289062 -15.0625 2.09375 -16.1875 C 1.894531 -17.3125 1.972656 -18.535156 2.328125 -19.859375 C 2.773438 -21.484375 3.46875 -22.867188 4.40625 -24.015625 C 5.351562 -25.160156 6.46875 -26.085938 7.75 -26.796875 C 9.039062 -27.515625 10.429688 -28.046875 11.921875 -28.390625 C 13.410156 -28.742188 14.921875 -28.921875 16.453125 -28.921875 C 17.765625 -28.921875 19.140625 -28.890625 20.578125 -28.828125 C 22.015625 -28.773438 23.410156 -28.742188 24.765625 -28.734375 C 26.117188 -28.722656 27.332031 -28.773438 28.40625 -28.890625 C 29.476562 -29.015625 30.289062 -29.253906 30.84375 -29.609375 C 31.09375 -29.773438 31.320312 -29.894531 31.53125 -29.96875 C 31.738281 -30.039062 31.832031 -29.859375 31.8125 -29.421875 C 31.726562 -27.773438 31.359375 -26.425781 30.703125 -25.375 C 30.054688 -24.332031 29.207031 -23.5625 28.15625 -23.0625 C 27.101562 -22.570312 25.914062 -22.347656 24.59375 -22.390625 C 22.914062 -22.453125 21.507812 -22.25 20.375 -21.78125 C 19.238281 -21.320312 18.296875 -20.664062 17.546875 -19.8125 C 16.796875 -18.96875 16.175781 -17.976562 15.6875 -16.84375 C 15.195312 -15.707031 14.753906 -14.488281 14.359375 -13.1875 C 13.972656 -11.894531 13.570312 -10.585938 13.15625 -9.265625 C 12.125 -6.097656 10.769531 -3.757812 9.09375 -2.25 C 7.425781 -0.75 5.6875 0 3.875 0 C 2.78125 0 1.894531 -0.25 1.21875 -0.75 C 0.550781 -1.257812 0.0664062 -1.925781 -0.234375 -2.75 C -0.535156 -3.582031 -0.6875 -4.484375 -0.6875 -5.453125 C -0.6875 -6.421875 -0.5625 -7.378906 -0.3125 -8.328125 C -0.0625 -9.273438 0.28125 -10.101562 0.71875 -10.8125 C 0.875 -11.0625 1.046875 -11.210938 1.234375 -11.265625 C 1.421875 -11.316406 1.554688 -11.164062 1.640625 -10.8125 C 1.828125 -9.863281 2.234375 -9.140625 2.859375 -8.640625 C 3.492188 -8.140625 4.234375 -7.859375 5.078125 -7.796875 C 5.921875 -7.742188 6.765625 -7.925781 7.609375 -8.34375 C 8.460938 -8.769531 9.195312 -9.4375 9.8125 -10.34375 C 10.4375 -11.226562 10.96875 -12.242188 11.40625 -13.390625 C 11.851562 -14.535156 12.285156 -15.703125 12.703125 -16.890625 C 13.128906 -18.078125 13.613281 -19.191406 14.15625 -20.234375 C 14.707031 -21.285156 15.398438 -22.171875 16.234375 -22.890625 C 14.453125 -22.953125 12.71875 -22.953125 11.03125 -22.890625 C 9.351562 -22.828125 7.945312 -22.597656 6.8125 -22.203125 C 5.90625 -21.878906 5.257812 -21.492188 4.875 -21.046875 C 4.5 -20.597656 4.34375 -20.140625 4.40625 -19.671875 C 4.476562 -19.210938 4.734375 -18.828125 5.171875 -18.515625 C 5.609375 -18.210938 6.195312 -18.050781 6.9375 -18.03125 C 7.351562 -18.03125 7.796875 -18.113281 8.265625 -18.28125 C 8.742188 -18.457031 9.191406 -18.742188 9.609375 -19.140625 Z M 9.609375 -19.140625 "/></g></g></g><g fill="#fffaf0" fill-opacity="1"><g transform="translate(18.347357, 32.161291)"><g/></g></g><g fill="#fffaf0" fill-opacity="1"><g transform="translate(27.649732, 32.161291)"><g><path d="M 18.375 -22.453125 C 18.96875 -23.609375 19.191406 -24.546875 19.046875 -25.265625 C 18.898438 -25.992188 18.507812 -26.519531 17.875 -26.84375 C 17.25 -27.175781 16.503906 -27.300781 15.640625 -27.21875 C 14.773438 -27.144531 13.929688 -26.878906 13.109375 -26.421875 C 12.003906 -25.773438 11.066406 -24.867188 10.296875 -23.703125 C 9.523438 -22.535156 9.003906 -21.304688 8.734375 -20.015625 C 8.503906 -18.878906 8.257812 -17.703125 8 -16.484375 C 7.75 -15.265625 7.398438 -14.066406 6.953125 -12.890625 C 6.503906 -11.710938 5.867188 -10.617188 5.046875 -9.609375 C 4.222656 -8.609375 3.117188 -7.738281 1.734375 -7 C 2.554688 -7.25 3.46875 -7.378906 4.46875 -7.390625 C 5.476562 -7.398438 6.53125 -7.347656 7.625 -7.234375 C 8.71875 -7.117188 9.785156 -6.992188 10.828125 -6.859375 C 11.867188 -6.722656 12.832031 -6.625 13.71875 -6.5625 C 15.082031 -6.457031 16.238281 -6.492188 17.1875 -6.671875 C 18.132812 -6.847656 18.929688 -7.226562 19.578125 -7.8125 C 19.765625 -7.988281 19.929688 -8.046875 20.078125 -7.984375 C 20.234375 -7.921875 20.300781 -7.769531 20.28125 -7.53125 C 20.195312 -5.21875 19.492188 -3.382812 18.171875 -2.03125 C 16.859375 -0.675781 15.078125 0 12.828125 0 C 11.796875 0 10.65625 -0.0664062 9.40625 -0.203125 C 8.15625 -0.335938 6.875 -0.484375 5.5625 -0.640625 C 4.25 -0.804688 2.988281 -0.925781 1.78125 -1 C 0.570312 -1.070312 -0.53125 -1.054688 -1.53125 -0.953125 C -2.53125 -0.859375 -3.332031 -0.625 -3.9375 -0.25 C -4.28125 -0.0390625 -4.535156 0.0078125 -4.703125 -0.09375 C -4.867188 -0.195312 -4.785156 -0.460938 -4.453125 -0.890625 C -3.484375 -2.148438 -2.632812 -3.503906 -1.90625 -4.953125 C -1.175781 -6.398438 -0.53125 -7.890625 0.03125 -9.421875 C 0.601562 -10.960938 1.148438 -12.46875 1.671875 -13.9375 C 2.171875 -15.363281 2.71875 -16.789062 3.3125 -18.21875 C 3.914062 -19.65625 4.609375 -21.015625 5.390625 -22.296875 C 6.171875 -23.578125 7.078125 -24.71875 8.109375 -25.71875 C 9.140625 -26.71875 10.332031 -27.5 11.6875 -28.0625 C 13.039062 -28.632812 14.597656 -28.921875 16.359375 -28.921875 C 18.128906 -28.921875 19.550781 -28.523438 20.625 -27.734375 C 21.695312 -26.941406 22.394531 -25.882812 22.71875 -24.5625 C 23.039062 -23.238281 22.929688 -21.769531 22.390625 -20.15625 C 21.773438 -18.300781 20.773438 -16.78125 19.390625 -15.59375 C 18.003906 -14.40625 16.320312 -13.789062 14.34375 -13.75 C 13.039062 -13.726562 12.03125 -14.046875 11.3125 -14.703125 C 10.601562 -15.367188 10.195312 -16.21875 10.09375 -17.25 C 9.988281 -18.28125 10.164062 -19.34375 10.625 -20.4375 C 10.707031 -20.644531 10.816406 -20.753906 10.953125 -20.765625 C 11.085938 -20.773438 11.207031 -20.695312 11.3125 -20.53125 C 11.65625 -20.019531 12.097656 -19.6875 12.640625 -19.53125 C 13.191406 -19.375 13.75 -19.335938 14.3125 -19.421875 C 15.175781 -19.546875 15.96875 -19.882812 16.6875 -20.4375 C 17.414062 -21 17.976562 -21.671875 18.375 -22.453125 Z M 18.375 -22.453125 "/></g></g></g></svg>